<?xml version="1.0" encoding="UTF-8" standalone="no"?>
<!-- Created with Inkscape (http://www.inkscape.org/) -->

<svg
   xmlns:dc="http://purl.org/dc/elements/1.1/"
   xmlns:cc="http://creativecommons.org/ns#"
   xmlns:rdf="http://www.w3.org/1999/02/22-rdf-syntax-ns#"
   xmlns:svg="http://www.w3.org/2000/svg"
   xmlns="http://www.w3.org/2000/svg"
   xmlns:sodipodi="http://sodipodi.sourceforge.net/DTD/sodipodi-0.dtd"
   xmlns:inkscape="http://www.inkscape.org/namespaces/inkscape"
   width="14.416667mm"
   height="3.7923584mm"
   viewBox="0 0 51.08268 13.43749"
   id="svg3345"
   version="1.1"
   inkscape:version="0.91 r13725"
   sodipodi:docname="ruler.svg">
  <defs
     id="defs3347" />
  <sodipodi:namedview
     id="base"
     pagecolor="#ffffff"
     bordercolor="#666666"
     borderopacity="1"
     inkscape:pageopacity="0.0"
     inkscape:pageshadow="2"
     inkscape:zoom="45.254834"
     inkscape:cx="41.428471"
     inkscape:cy="8.327664"
     inkscape:document-units="px"
     inkscape:current-layer="layer1"
     showgrid="false"
     showborder="false"
     fit-margin-top="0"
     fit-margin-left="-0.2"
     fit-margin-right="-0.2"
     fit-margin-bottom="0"
     showguides="false"
     inkscape:window-width="1920"
     inkscape:window-height="1019"
     inkscape:window-x="0"
     inkscape:window-y="0"
     inkscape:window-maximized="1" />
  <metadata
     id="metadata3350">
    <rdf:RDF>
      <cc:Work
         rdf:about="">
        <dc:format>image/svg+xml</dc:format>
        <dc:type
           rdf:resource="http://purl.org/dc/dcmitype/StillImage" />
        <dc:title></dc:title>
      </cc:Work>
    </rdf:RDF>
  </metadata>
  <g
     inkscape:label="Layer 1"
     inkscape:groupmode="layer"
     id="layer1"
     transform="translate(-350.85899,-474.40774)">
    <path
       style="fill:#000000;image-rendering:auto"
       d="m 362.33783,481.75148 0,-6.09375 -1.875,0 -1.875,0 0,1.875 0,1.875 -0.625,0 -0.625,0 0,-1.875 0,-1.875 -2.03125,0 -2.03125,0 0,1.875 0,1.875 -0.625,0 -0.625,0 0,-1.875 0,-1.875 -0.9375,0 -0.9375,0 0,-0.625 0,-0.62499 26.25,0 26.25,0 0,0.62499 0,0.625 -1.25,0 -1.25,0 0,1.875 0,1.875 -0.625,0 -0.625,0 0,-1.875 0,-1.875 -2.1875,0 -2.1875,0 0,1.875 0,1.875 -0.625,0 -0.625,0 0,-1.875 0,-1.875 -1.71875,0 -1.71875,0 0,3.90625 0,3.90625 -0.625,0 -0.625,0 0,-3.90625 0,-3.90625 -1.71875,0 -1.71875,0 0,1.875 0,1.875 -0.625,0 -0.625,0 0,-1.875 0,-1.875 -1.875,0 -1.875,0 0,1.875 0,1.875 -0.625,0 -0.625,0 0,-1.875 0,-1.875 -2.1875,0 -2.1875,0 0,1.875 0,1.875 -0.625,0 -0.625,0 0,-1.875 0,-1.875 -2.1875,0 -2.1875,0 0,1.875 0,1.875 -0.625,0 -0.625,0 0,-1.875 0,-1.875 -2.03125,0 -2.03125,0 0,6.09375 0,6.09375 -0.625,0 -0.625,0 0,-6.09375 z"
       id="path3800"
       inkscape:connector-curvature="0" />
  </g>
</svg>
